# Blender 4.0.2
# www.blender.org
mtllib testcloak.mtl
o Cloak.002
v 0.617794 -0.953603 0.094301
v 0.587809 -0.714136 0.102372
v 0.556670 -0.509015 0.084949
v 0.533930 -0.338390 0.073094
v 0.509343 -0.196040 0.064072
v 0.473865 -0.979780 0.241008
v 0.480996 -0.095978 0.048412
v 0.455005 -0.740228 0.248618
v 0.436422 -0.530600 0.233422
v 0.442619 -0.028966 0.026634
v 0.419140 -0.352862 0.221208
v 0.398899 -0.202392 0.207488
v 0.386024 0.009768 -0.016428
v 0.371158 -0.097365 0.184833
v 0.333203 -0.022497 0.152971
v 0.326873 0.009770 -0.057834
v 0.315067 -0.995837 0.332507
v 0.304557 -0.755857 0.334905
v 0.290521 -0.542801 0.314741
v 0.277163 -0.360976 0.300334
v 0.280116 0.009771 0.105927
v 0.260061 -0.206272 0.289672
v 0.243426 0.009761 -0.115673
v 0.238122 -0.098821 0.270559
v 0.212152 -0.022322 0.240987
v 0.166370 0.009486 0.206265
v 0.135607 0.009761 -0.183027
v 0.066900 0.009065 0.244060
v 0.057268 -0.001672 0.265219
v 0.056141 -0.015821 0.280289
v 0.043591 -0.036684 0.293462
v 0.036674 0.008949 0.256259
v 0.027161 0.009762 -0.227930
v 0.000000 -0.048663 0.299750
v 0.000000 -0.093648 0.300702
v 0.000000 -0.208287 0.314384
v 0.000000 -0.363522 0.326411
v 0.000000 -0.546480 0.341936
v 0.000000 -0.760724 0.363287
v 0.000000 -1.001233 0.362943
v -0.617794 -0.953603 0.094301
v -0.587809 -0.714136 0.102372
v -0.556670 -0.509015 0.084949
v -0.533930 -0.338390 0.073094
v -0.509343 -0.196040 0.064072
v -0.473865 -0.979780 0.241009
v -0.480996 -0.095978 0.048412
v -0.455004 -0.740228 0.248618
v -0.436422 -0.530600 0.233422
v -0.442619 -0.028966 0.026634
v -0.419140 -0.352862 0.221209
v -0.398899 -0.202392 0.207488
v -0.386024 0.009768 -0.016428
v -0.371158 -0.097365 0.184833
v -0.333203 -0.022497 0.152971
v -0.326873 0.009770 -0.057834
v -0.315066 -0.995837 0.332507
v -0.304557 -0.755857 0.334905
v -0.290521 -0.542801 0.314741
v -0.277163 -0.360976 0.300334
v -0.280116 0.009771 0.105927
v -0.260060 -0.206272 0.289672
v -0.243426 0.009761 -0.115673
v -0.238122 -0.098821 0.270559
v -0.212151 -0.022322 0.240987
v -0.166370 0.009486 0.206265
v -0.135607 0.009761 -0.183027
v -0.066900 0.009065 0.244060
v -0.057268 -0.001672 0.265219
v -0.056141 -0.015821 0.280289
v -0.043591 -0.036684 0.293462
v -0.036674 0.008949 0.256259
v 0.000000 0.009801 0.005609
v -0.027161 0.009762 -0.227930
vn -0.0001 1.0000 -0.0000
vn -0.1687 0.9708 0.1707
vn -0.0000 1.0000 0.0013
vn -0.0001 1.0000 -0.0001
vn 0.6397 0.2236 0.7354
vn 0.7606 0.2397 0.6033
vn 0.7025 0.4298 0.5672
vn 0.6074 0.4125 0.6789
vn 0.3231 0.6764 0.6619
vn 0.1292 0.9578 0.2568
vn 0.1002 0.9582 0.2678
vn 0.0506 0.9899 0.1322
vn 0.2006 0.7880 0.5820
vn 0.1687 0.9708 0.1707
vn 0.4667 0.7295 0.5000
vn 0.5264 0.7350 0.4274
vn 0.1887 0.9704 0.1508
vn -0.0506 0.9899 0.1322
vn 0.0001 1.0000 -0.0000
vn -0.0000 1.0000 -0.0002
vn 0.0001 1.0000 -0.0002
vn 0.0001 1.0000 -0.0001
vn 0.2263 0.5389 0.8114
vn 0.1690 0.1627 0.9721
vn 0.3362 0.3229 0.8847
vn 0.6157 0.0783 0.7840
vn 0.7318 0.0974 0.6745
vn 0.7554 0.1358 0.6410
vn 0.6272 0.1240 0.7689
vn -0.0000 0.0912 0.9958
vn -0.0000 0.1171 0.9931
vn 0.3091 0.1645 0.9367
vn -0.0000 0.0817 0.9967
vn 0.2971 0.1016 0.9494
vn 0.6404 0.1351 0.7561
vn 0.7720 0.1492 0.6178
vn -0.0001 1.0000 -0.0002
vn 0.6139 0.0317 0.7887
vn 0.7214 0.0510 0.6906
vn -0.0000 0.0212 0.9998
vn -0.0000 0.0925 0.9957
vn 0.2927 0.1021 0.9507
vn 0.2976 0.0542 0.9532
vn -0.0000 0.0474 0.9989
vn -0.0000 -0.0036 1.0000
vn 0.3017 0.0044 0.9534
vn -0.1690 0.1627 0.9721
vn -0.6397 0.2236 0.7354
vn -0.6074 0.4125 0.6789
vn -0.7025 0.4298 0.5672
vn -0.7606 0.2397 0.6033
vn -0.3231 0.6764 0.6619
vn -0.1002 0.9582 0.2678
vn -0.1292 0.9578 0.2568
vn -0.2006 0.7880 0.5821
vn -0.1887 0.9704 0.1508
vn -0.5264 0.7350 0.4274
vn -0.4667 0.7295 0.5000
vn -0.3362 0.3229 0.8847
vn -0.2263 0.5389 0.8114
vn -0.6157 0.0783 0.7840
vn -0.6272 0.1240 0.7689
vn -0.7554 0.1358 0.6410
vn -0.7318 0.0974 0.6745
vn -0.3091 0.1645 0.9367
vn -0.2971 0.1016 0.9494
vn -0.6404 0.1351 0.7561
vn -0.7720 0.1492 0.6178
vn -0.6139 0.0317 0.7887
vn -0.7214 0.0510 0.6906
vn -0.2927 0.1021 0.9507
vn -0.2976 0.0542 0.9532
vn -0.3017 0.0044 0.9534
s 1
usemtl NULL1
f 56//1 61//2 73//3 63//4
f 12//5 5//6 7//7 14//8
f 25//9 26//10 28//11
f 28//11 32//12 29//13
f 29//13 25//9 28//11
f 21//14 15//15 10//16 13//17
f 72//18 32//12 73//3
f 28//11 26//10 21//14
f 21//14 73//3 28//11
f 21//14 13//17 16//19
f 33//20 73//3 27//21
f 23//22 27//21 73//3
f 73//3 32//12 28//11
f 25//9 30//23 31//24 24//25
f 8//26 2//27 3//28 9//29
f 35//30 36//31 22//32 24//25
f 22//32 36//31 37//33 20//34
f 11//35 9//29 3//28 4//36
f 73//3 74//20 67//37
f 22//32 20//34 11//35 12//5
f 6//38 1//39 2//27 8//26
f 26//10 25//9 15//15 21//14
f 22//32 12//5 14//8 24//25
f 73//3 33//20 74//20
f 31//24 34//40 35//30
f 20//34 37//33 38//41 19//42
f 19//42 9//29 11//35 20//34
f 18//43 39//44 40//45 17//46
f 5//6 12//5 11//35 4//36
f 39//44 18//43 19//42 38//41
f 14//8 15//15 25//9 24//25
f 7//7 10//16 15//15 14//8
f 17//46 6//38 8//26 18//43
f 71//47 35//30 34//40
f 29//13 30//23 25//9
f 52//48 54//49 47//50 45//51
f 65//52 68//53 66//54
f 68//53 69//55 72//18
f 69//55 68//53 65//52
f 61//2 53//56 50//57 55//58
f 68//53 61//2 66//54
f 61//2 68//53 73//3
f 61//2 56//1 53//56
f 63//4 73//3 67//37
f 68//53 72//18 73//3
f 65//52 64//59 71//47 70//60
f 48//61 49//62 43//63 42//64
f 62//65 36//31 35//30 64//59
f 62//65 60//66 37//33 36//31
f 51//67 44//68 43//63 49//62
f 62//65 52//48 51//67 60//66
f 46//69 48//61 42//64 41//70
f 66//54 61//2 55//58 65//52
f 62//65 64//59 54//49 52//48
f 35//30 71//47 64//59
f 60//66 59//71 38//41 37//33
f 35//30 24//25 31//24
f 59//71 60//66 51//67 49//62
f 58//72 57//73 40//45 39//44
f 45//51 44//68 51//67 52//48
f 39//44 38//41 59//71 58//72
f 54//49 64//59 65//52 55//58
f 47//50 54//49 55//58 50//57
f 57//73 58//72 48//61 46//69
f 48//61 58//72 59//71 49//62
f 18//43 8//26 9//29 19//42
f 16//19 23//22 73//3 21//14
f 69//55 65//52 70//60
