# Blender 3.5.0
# www.blender.org
mtllib untitled2.mtl
o Plane
v -0.671875 -0.111774 0.671875
v 0.666667 0.315737 1.000000
v -1.096979 -0.671097 -0.795115
v 0.482537 -0.355360 -0.997159
v 1.000000 1.471843 0.671875
v 0.798440 1.223324 -1.037568
v -1.826871 -1.304486 -1.743462
v -0.752594 -0.988749 -2.827329
v -0.537739 0.589935 -3.044103
v -4.008474 -2.017730 -2.123758
v -3.782116 -1.701993 -3.687629
v -3.736845 -0.123309 -4.000403
v -7.746895 -3.054328 -1.288549
v -9.326864 -2.922780 -3.366754
v -7.791654 -1.280173 -3.495365
v -11.018045 -4.483741 0.361870
v -12.447657 -4.483741 -3.333251
v -13.822048 -7.057960 1.503604
v -15.265028 -7.057960 -2.226073
v -16.664753 -9.197641 1.983372
v -17.757189 -10.051089 -0.442434
v -20.159733 -12.832096 2.421699
v -20.428568 -13.065284 0.476062
v -18.796501 -8.982131 3.042058
v -21.550322 -11.342552 3.796760
v -23.494076 -15.340969 1.425920
v -23.205351 -15.325681 -0.503531
v -25.239599 -14.047409 2.514102
v -26.816372 -17.000933 -1.089597
v -25.825844 -17.069941 -2.724525
v -28.697493 -15.520335 -0.638929
v -29.282257 -17.898750 -4.860085
v -27.636026 -17.858833 -5.856949
v -30.809746 -16.038824 -4.557108
v -30.131039 -18.343456 -10.500383
v -28.603863 -18.677813 -10.113522
v -30.840641 -16.477108 -9.258632
v -0.970456 -0.353565 -0.016056
v 0.000000 0.025274 0.958333
v 0.643650 -0.023635 0.000355
v -0.188757 -0.631630 -0.911291
v 0.974805 1.501389 -0.046363
v 0.758952 0.315581 -1.032517
v 0.958333 0.933017 0.958333
v -1.209162 -1.265019 -2.366686
v -0.564596 -0.317809 -3.017006
v 0.051951 -0.674726 -1.971670
v 0.329078 0.903958 -2.094737
v -1.333684 -0.990463 -1.356331
v -3.878318 -1.978263 -3.022984
v -3.742503 -1.031052 -3.961306
v -2.017300 -1.315058 -3.445035
v -1.883706 0.263626 -3.726210
v -2.685268 -1.630795 -2.039165
v -8.170306 -3.036787 -2.393042
v -8.629896 -2.099045 -3.351917
v -6.088508 -2.202828 -3.509945
v -5.956119 -0.624277 -3.820334
v -5.807345 -2.503408 -1.865724
v -11.732851 -4.483741 -1.485691
v -9.487652 -3.661268 -0.481019
v -10.723671 -3.644825 -3.425069
v -14.543537 -7.057960 -0.361234
v -12.420066 -5.657930 1.048078
v -13.957541 -5.657930 -2.925841
v -17.287409 -9.973509 0.758626
v -15.298807 -8.420900 1.738799
v -16.505636 -8.527581 -1.330773
v -20.138578 -13.066473 1.502372
v -18.640678 -11.267159 2.207625
v -19.068314 -11.613889 0.219826
v -20.035561 -9.871451 3.581951
v -17.761396 -9.078226 2.447232
v -20.699457 -12.205107 3.162721
v -23.213142 -15.456031 0.540063
v -24.230263 -14.816895 2.048880
v -23.338810 -12.813405 3.447772
v -21.781174 -14.187528 2.159240
v -21.813963 -14.274390 0.206947
v -26.237617 -17.167772 -1.796037
v -27.673437 -16.392969 -0.753239
v -27.067286 -14.935542 1.071038
v -25.201790 -16.276741 0.315521
v -24.571232 -16.302704 -1.522457
v -28.470274 -18.056904 -5.293465
v -30.057133 -17.146898 -4.643545
v -30.006195 -15.874365 -2.435843
v -28.234457 -17.529831 -2.759194
v -26.873878 -17.517719 -4.070391
v -29.371111 -18.755913 -10.676710
v -30.587097 -17.399603 -10.202480
v -31.001278 -16.116110 -7.107390
v -29.847071 -18.151079 -7.518391
v -28.112808 -18.296680 -8.192652
v -0.053109 -0.302270 0.004144
v 0.933411 0.638363 -0.011009
v 0.294437 -0.003785 -2.079354
v -0.536944 -0.950996 -1.710151
v -1.900405 -0.644117 -3.691063
v -2.301186 -1.591328 -2.847541
v -6.059145 -1.522347 -3.769835
v -5.939573 -2.467778 -2.808682
v -10.069086 -3.658528 -1.960251
v -13.188803 -5.657929 -0.938882
v -15.908986 -8.509801 0.203105
v -18.707224 -11.568807 1.264293
v -19.187363 -10.659990 2.939006
v -22.410891 -13.621146 2.865734
v -21.648464 -14.351638 1.245321
v -26.018763 -15.729445 0.794760
v -24.770737 -16.413025 -0.501987
v -29.081781 -16.858433 -2.504908
v -27.515623 -17.680109 -3.322182
v -30.481678 -17.293575 -7.304889
v -29.026367 -18.412905 -7.852829
vn -0.0510 0.9469 -0.3174
vn -0.2485 0.9201 -0.3029
vn -0.2214 0.9273 -0.3019
vn -0.0593 0.9402 -0.3355
vn -0.7240 0.6601 -0.2004
vn -0.7047 0.6914 -0.1592
vn -0.7275 0.6861 -0.0036
vn -0.2703 0.9248 -0.2676
vn -0.1083 0.9269 -0.3595
vn -0.9727 0.2307 0.0242
vn -0.9512 0.2187 0.2175
vn -0.9701 0.2383 -0.0450
vn -0.9978 0.0636 0.0196
vn -0.9948 0.0567 0.0849
vn -0.9653 0.0462 0.2570
vn -0.8477 0.2091 0.4876
vn -0.6954 0.6796 0.2337
vn -0.8562 0.0420 0.5149
vn -0.6325 0.0417 0.7734
vn -0.6278 0.2071 0.7504
vn -0.5572 0.6800 0.4765
vn -0.3323 0.9288 -0.1643
vn -0.2025 0.9252 -0.3209
vn -0.3374 0.9413 -0.0135
vn -0.2588 0.9457 -0.1965
vn -0.3364 0.2090 0.9182
vn -0.3507 0.6852 0.6384
vn -0.3316 0.0423 0.9425
vn -0.0574 0.0438 0.9974
vn -0.0750 0.2094 0.9750
vn -0.1662 0.6893 0.7051
vn -0.2857 0.9514 0.1150
vn -0.2601 0.9626 -0.0756
vn -0.2306 0.9545 0.1889
vn -0.2469 0.9690 0.0079
vn 0.0762 0.1521 0.9854
vn -0.0807 0.6542 0.7520
vn 0.1042 0.0374 0.9939
vn 0.1597 0.0239 0.9869
vn 0.0838 0.1100 0.9904
vn -0.2540 0.8455 0.4697
vn -0.2101 0.9531 0.2179
vn -0.2393 0.9687 0.0661
vn -0.2468 0.9433 0.2220
vn -0.2601 0.9600 0.1034
vn -0.3582 0.9140 0.1906
vn -0.3453 0.9282 0.1384
vn -0.3817 0.8978 0.2198
vn -0.4979 0.8441 0.1990
vn -0.4863 0.8524 0.1924
vn -0.4889 0.8514 0.1900
vn -0.6033 0.7626 0.2334
vn -0.6037 0.7622 0.2336
vn -0.6491 0.7185 0.2497
vn -0.6480 0.7208 0.2460
vn -0.6460 0.7238 0.2425
vn -0.6533 0.7330 0.1894
vn -0.6427 0.7515 0.1490
vn -0.6625 0.7080 0.2446
vn -0.6824 0.6943 0.2288
vn -0.6989 0.7095 0.0899
vn -0.6811 0.6975 -0.2230
vn -0.7249 0.6882 0.0311
vn -0.6714 0.5520 -0.4945
vn -0.6949 0.6872 0.2117
vn -0.6756 0.7133 0.1868
vn -0.6830 0.7302 -0.0190
vn -0.5823 0.6334 -0.5096
vn -0.4776 0.2841 -0.8314
vn -0.4817 0.2498 -0.8399
vn -0.3736 0.4251 -0.8244
vn -0.2961 0.3565 -0.8861
vn -0.4358 0.2263 -0.8711
vn -0.4860 0.1659 -0.8581
vn -0.1718 0.5693 -0.8040
vn -0.0846 0.5077 -0.8574
vn -0.4143 0.7494 -0.5164
vn -0.2404 0.8306 -0.5023
vn 0.0341 0.6681 -0.7433
vn 0.1323 0.6136 -0.7785
vn -0.5993 0.7988 -0.0527
vn -0.6384 0.7561 0.1440
vn -0.5912 0.8034 0.0714
vn -0.5078 0.8562 -0.0954
vn 0.2243 0.7064 -0.6713
vn 0.3266 0.6487 -0.6874
vn -0.0674 0.8703 -0.4880
vn 0.1000 0.8838 -0.4570
vn 0.3892 0.7027 -0.5956
vn 0.4857 0.6367 -0.5989
vn -0.3921 0.9071 -0.1531
vn -0.4996 0.8661 -0.0149
vn -0.3745 0.9258 -0.0524
vn -0.2512 0.9510 -0.1804
vn 0.5538 0.6887 -0.4679
vn 0.6450 0.6159 -0.4524
vn 0.2565 0.8906 -0.3756
vn 0.4093 0.8786 -0.2460
vn 0.7224 0.6376 -0.2675
vn 0.7970 0.5525 -0.2439
vn -0.1356 0.9780 -0.1583
vn -0.2987 0.9528 -0.0547
vn -0.2523 0.9639 -0.0853
vn -0.0539 0.9896 -0.1337
vn 0.8475 0.5204 -0.1042
vn 0.8951 0.4384 -0.0814
vn 0.5575 0.8179 -0.1421
vn 0.5921 0.7981 -0.1119
vn 0.8727 0.4838 -0.0656
vn 0.9341 0.3563 -0.0227
vn 0.0631 0.9893 -0.1317
vn -0.1589 0.9797 -0.1221
vn -0.0963 0.9864 -0.1336
vn 0.1957 0.9719 -0.1306
vt 0.000000 0.000000
vt 1.000000 0.000000
vt 0.000000 1.000000
vt 0.833333 0.833333
vt 1.000000 0.000000
vt 1.000000 1.000000
vt 0.000000 1.000000
vt 0.833333 1.000000
vt 1.000000 1.000000
vt 0.000000 1.000000
vt 0.833333 1.000000
vt 1.000000 1.000000
vt 0.000000 1.000000
vt 1.000000 1.000000
vt 1.000000 1.000000
vt 0.000000 1.000000
vt 1.000000 1.000000
vt 0.000000 1.000000
vt 1.000000 1.000000
vt 0.000000 1.000000
vt 1.000000 1.000000
vt 0.166667 1.000000
vt 1.000000 1.000000
vt 0.000000 1.000000
vt 0.000000 1.000000
vt 0.166667 1.000000
vt 1.000000 1.000000
vt 0.000000 1.000000
vt 0.166667 1.000000
vt 1.000000 1.000000
vt 0.000000 1.000000
vt 0.166667 1.000000
vt 1.000000 1.000000
vt 0.000000 1.000000
vt 0.000000 1.000000
vt 1.000000 1.000000
vt 0.000000 1.000000
vt 0.000000 0.500000
vt 0.500000 0.000000
vt 0.847222 0.479167
vt 0.479167 0.847222
vt 1.000000 0.500000
vt 0.979167 0.847222
vt 1.000000 0.000000
vt 0.479167 1.000000
vt 0.979167 1.000000
vt 0.833333 0.979167
vt 1.000000 1.000000
vt 0.000000 1.000000
vt 0.479167 1.000000
vt 0.979167 1.000000
vt 0.833333 1.000000
vt 1.000000 1.000000
vt 0.000000 1.000000
vt 0.496528 1.000000
vt 1.000000 1.000000
vt 0.847222 1.000000
vt 1.000000 1.000000
vt 0.000000 1.000000
vt 0.500000 1.000000
vt 0.000000 1.000000
vt 1.000000 1.000000
vt 0.500000 1.000000
vt 0.000000 1.000000
vt 1.000000 1.000000
vt 0.503472 1.000000
vt 0.000000 1.000000
vt 1.000000 1.000000
vt 0.520833 1.000000
vt 0.152778 1.000000
vt 1.000000 1.000000
vt 0.000000 1.000000
vt 0.000000 1.000000
vt 0.020833 1.000000
vt 0.520833 1.000000
vt 0.020833 1.000000
vt 0.000000 1.000000
vt 0.166667 1.000000
vt 1.000000 1.000000
vt 0.520833 1.000000
vt 0.020833 1.000000
vt 0.000000 1.000000
vt 0.166667 1.000000
vt 1.000000 1.000000
vt 0.520833 1.000000
vt 0.020833 1.000000
vt 0.000000 1.000000
vt 0.166667 1.000000
vt 1.000000 1.000000
vt 0.500000 1.000000
vt 0.000000 1.000000
vt 0.000000 1.000000
vt 0.152778 1.000000
vt 1.000000 1.000000
vt 0.482639 0.482639
vt 0.982639 0.482639
vt 0.979167 0.982639
vt 0.479167 0.982639
vt 0.979167 1.000000
vt 0.479167 1.000000
vt 0.982639 1.000000
vt 0.482639 1.000000
vt 0.500000 1.000000
vt 0.500000 1.000000
vt 0.500000 1.000000
vt 0.517361 1.000000
vt 0.017361 1.000000
vt 0.020833 1.000000
vt 0.520833 1.000000
vt 0.020833 1.000000
vt 0.520833 1.000000
vt 0.020833 1.000000
vt 0.520833 1.000000
vt 0.017361 1.000000
vt 0.517361 1.000000
s 1
f 1/1/1 39/39/2 95/95/3 38/38/4
f 39/39/2 2/2/5 40/40/6 95/95/3
f 95/95/3 40/40/6 4/4/7 41/41/8
f 38/38/4 95/95/3 41/41/8 3/3/9
f 4/4/7 40/40/6 96/96/10 43/43/11
f 40/40/6 2/2/5 44/44/12 96/96/10
f 96/96/10 44/44/12 5/5/13 42/42/14
f 43/43/11 96/96/10 42/42/14 6/6/15
f 4/4/7 43/43/11 97/97/16 47/47/17
f 43/43/11 6/6/15 48/48/18 97/97/16
f 97/97/16 48/48/18 9/9/19 46/46/20
f 47/47/17 97/97/16 46/46/20 8/8/21
f 3/3/9 41/41/8 98/98/22 49/49/23
f 41/41/8 4/4/7 47/47/17 98/98/22
f 98/98/22 47/47/17 8/8/21 45/45/24
f 49/49/23 98/98/22 45/45/24 7/7/25
f 8/8/21 46/46/20 99/99/26 52/52/27
f 46/46/20 9/9/19 53/53/28 99/99/26
f 99/99/26 53/53/28 12/12/29 51/51/30
f 52/52/27 99/99/26 51/51/30 11/11/31
f 7/7/25 45/45/24 100/100/32 54/54/33
f 45/45/24 8/8/21 52/52/27 100/100/32
f 100/100/32 52/52/27 11/11/31 50/50/34
f 54/54/33 100/100/32 50/50/34 10/10/35
f 11/11/31 51/51/30 101/101/36 57/57/37
f 51/51/30 12/12/29 58/58/38 101/101/36
f 101/101/36 58/58/38 15/15/39 56/56/40
f 57/57/37 101/101/36 56/56/40 14/14/41
f 10/10/35 50/50/34 102/102/42 59/59/43
f 50/50/34 11/11/31 57/57/37 102/102/42
f 102/102/42 57/57/37 14/14/41 55/55/44
f 59/59/43 102/102/42 55/55/44 13/13/45
f 13/13/45 55/55/44 103/103/46 61/61/47
f 55/55/44 14/14/41 62/62/48 103/103/46
f 103/103/46 62/62/48 17/17/49 60/60/50
f 61/61/47 103/103/46 60/60/50 16/16/51
f 16/16/51 60/60/50 104/104/52 64/64/53
f 60/60/50 17/17/49 65/65/52 104/104/52
f 104/104/52 65/65/52 19/19/54 63/63/55
f 64/64/53 104/104/52 63/63/55 18/18/56
f 18/18/56 63/63/55 105/105/57 67/67/58
f 63/63/55 19/19/54 68/68/59 105/105/57
f 105/105/57 68/68/59 21/21/60 66/66/61
f 67/67/58 105/105/57 66/66/61 20/20/62
f 20/20/62 66/66/61 106/106/63 70/70/64
f 66/66/61 21/21/60 71/71/65 106/106/63
f 106/106/63 71/71/65 23/23/66 69/69/67
f 70/70/64 106/106/63 69/69/67 22/22/68
f 20/20/62 70/70/64 107/107/69 73/73/70
f 70/70/64 22/22/68 74/74/71 107/107/69
f 107/107/69 74/74/71 25/25/72 72/72/73
f 73/73/70 107/107/69 72/72/73 24/24/74
f 25/25/72 74/74/71 108/108/75 77/77/76
f 74/74/71 22/22/68 78/78/77 108/108/75
f 108/108/75 78/78/77 26/26/78 76/76/79
f 77/77/76 108/108/75 76/76/79 28/28/80
f 22/22/68 69/69/67 109/109/81 78/78/77
f 69/69/67 23/23/66 79/79/82 109/109/81
f 109/109/81 79/79/82 27/27/83 75/75/84
f 78/78/77 109/109/81 75/75/84 26/26/78
f 28/28/80 76/76/79 110/110/85 82/82/86
f 76/76/79 26/26/78 83/83/87 110/110/85
f 110/110/85 83/83/87 29/29/88 81/81/89
f 82/82/86 110/110/85 81/81/89 31/31/90
f 26/26/78 75/75/84 111/111/91 83/83/87
f 75/75/84 27/27/83 84/84/92 111/111/91
f 111/111/91 84/84/92 30/30/93 80/80/94
f 83/83/87 111/111/91 80/80/94 29/29/88
f 31/31/90 81/81/89 112/112/95 87/87/96
f 81/81/89 29/29/88 88/88/97 112/112/95
f 112/112/95 88/88/97 32/32/98 86/86/99
f 87/87/96 112/112/95 86/86/99 34/34/100
f 29/29/88 80/80/94 113/113/101 88/88/97
f 80/80/94 30/30/93 89/89/102 113/113/101
f 113/113/101 89/89/102 33/33/103 85/85/104
f 88/88/97 113/113/101 85/85/104 32/32/98
f 34/34/100 86/86/99 114/114/105 92/92/106
f 86/86/99 32/32/98 93/93/107 114/114/105
f 114/114/105 93/93/107 35/35/108 91/91/109
f 92/92/106 114/114/105 91/91/109 37/37/110
f 32/32/98 85/85/104 115/115/111 93/93/107
f 85/85/104 33/33/103 94/94/112 115/115/111
f 115/115/111 94/94/112 36/36/113 90/90/114
f 93/93/107 115/115/111 90/90/114 35/35/108
